<mxfile host="app.diagrams.net" modified="2022-07-04T09:39:04.201Z" agent="5.0 (Windows NT 10.0; Win64; x64) AppleWebKit/537.36 (KHTML, like Gecko) Chrome/103.0.0.0 Safari/537.36" etag="KKjd_PMNHZNX1xb8GD9O" version="20.0.4" type="github">
  <diagram id="GPVNlUdv42vTJCBi7Wxd" name="Page-1">
    <mxGraphModel dx="1254" dy="1729" grid="1" gridSize="10" guides="1" tooltips="1" connect="1" arrows="1" fold="1" page="1" pageScale="1" pageWidth="827" pageHeight="1169" math="0" shadow="0">
      <root>
        <mxCell id="0" />
        <mxCell id="1" parent="0" />
        <mxCell id="AQ-8HOtOhwurITKGxNNY-1" value="Systemanwendung fÃ¼r &quot;Drucker&quot;" style="text;html=1;strokeColor=none;fillColor=none;align=center;verticalAlign=middle;whiteSpace=wrap;rounded=0;fontStyle=1" parent="1" vertex="1">
          <mxGeometry x="350.75" y="-1160" width="208.5" height="30" as="geometry" />
        </mxCell>
        <mxCell id="AQ-8HOtOhwurITKGxNNY-2" value="" style="rounded=0;whiteSpace=wrap;html=1;labelPosition=center;verticalLabelPosition=top;align=center;verticalAlign=bottom;spacingTop=0;" parent="1" vertex="1">
          <mxGeometry x="80" y="-1120" width="250" height="440" as="geometry" />
        </mxCell>
        <mxCell id="AQ-8HOtOhwurITKGxNNY-3" value="" style="rounded=0;whiteSpace=wrap;html=1;" parent="1" vertex="1">
          <mxGeometry x="330" y="-1120" width="250" height="440" as="geometry" />
        </mxCell>
        <mxCell id="AQ-8HOtOhwurITKGxNNY-4" value="" style="rounded=0;whiteSpace=wrap;html=1;" parent="1" vertex="1">
          <mxGeometry x="580" y="-1120" width="250" height="440" as="geometry" />
        </mxCell>
        <mxCell id="AQ-8HOtOhwurITKGxNNY-5" value="Frontend" style="text;html=1;strokeColor=none;fillColor=none;align=center;verticalAlign=middle;whiteSpace=wrap;rounded=0;" parent="1" vertex="1">
          <mxGeometry x="175" y="-1120" width="60" height="30" as="geometry" />
        </mxCell>
        <mxCell id="AQ-8HOtOhwurITKGxNNY-6" value="Datenbank" style="text;html=1;strokeColor=none;fillColor=none;align=center;verticalAlign=middle;whiteSpace=wrap;rounded=0;" parent="1" vertex="1">
          <mxGeometry x="675" y="-1120" width="60" height="30" as="geometry" />
        </mxCell>
        <mxCell id="AQ-8HOtOhwurITKGxNNY-7" value="Backend" style="text;html=1;strokeColor=none;fillColor=none;align=center;verticalAlign=middle;whiteSpace=wrap;rounded=0;" parent="1" vertex="1">
          <mxGeometry x="425" y="-1120" width="60" height="30" as="geometry" />
        </mxCell>
        <mxCell id="AQ-8HOtOhwurITKGxNNY-8" value="" style="endArrow=none;html=1;rounded=0;" parent="1" edge="1">
          <mxGeometry width="50" height="50" relative="1" as="geometry">
            <mxPoint x="80" y="-1090" as="sourcePoint" />
            <mxPoint x="830" y="-1090" as="targetPoint" />
          </mxGeometry>
        </mxCell>
        <mxCell id="AQ-8HOtOhwurITKGxNNY-9" value="Home" style="swimlane;" parent="1" vertex="1">
          <mxGeometry x="105" y="-980" width="200" height="200" as="geometry" />
        </mxCell>
        <mxCell id="AQ-8HOtOhwurITKGxNNY-10" value="Articles" style="rounded=1;whiteSpace=wrap;html=1;" parent="AQ-8HOtOhwurITKGxNNY-9" vertex="1">
          <mxGeometry x="40" y="80" width="120" height="60" as="geometry" />
        </mxCell>
        <mxCell id="AQ-8HOtOhwurITKGxNNY-11" value="databaseArticles.php" style="swimlane;" parent="1" vertex="1">
          <mxGeometry x="355" y="-980" width="200" height="200" as="geometry" />
        </mxCell>
        <mxCell id="AQ-8HOtOhwurITKGxNNY-12" value="Get 2 articles with tag 2*" style="rounded=0;whiteSpace=wrap;html=1;" parent="AQ-8HOtOhwurITKGxNNY-11" vertex="1">
          <mxGeometry x="30" y="90" width="140" height="40" as="geometry" />
        </mxCell>
        <mxCell id="AQ-8HOtOhwurITKGxNNY-13" value="database Tabelle" style="rounded=1;whiteSpace=wrap;html=1;" parent="1" vertex="1">
          <mxGeometry x="645" y="-900" width="120" height="60" as="geometry" />
        </mxCell>
        <mxCell id="AQ-8HOtOhwurITKGxNNY-14" value="&lt;i&gt;Ordner bzgl. Frontend&lt;/i&gt;: /Technik_Blog/pages/&lt;b&gt;druckerContent&lt;/b&gt;" style="text;html=1;align=center;verticalAlign=middle;resizable=0;points=[];autosize=1;strokeColor=none;fillColor=none;" parent="1" vertex="1">
          <mxGeometry x="85" y="-660" width="350" height="30" as="geometry" />
        </mxCell>
        <mxCell id="AQ-8HOtOhwurITKGxNNY-15" value="*tag 2 is equivalent to tag &quot;Drucker&quot;" style="text;html=1;strokeColor=none;fillColor=none;align=center;verticalAlign=middle;whiteSpace=wrap;rounded=0;" parent="1" vertex="1">
          <mxGeometry x="75" y="-630" width="230" height="30" as="geometry" />
        </mxCell>
        <mxCell id="AQ-8HOtOhwurITKGxNNY-16" value="GET" style="endArrow=classic;html=1;rounded=0;exitX=1;exitY=0.5;exitDx=0;exitDy=0;entryX=0;entryY=0.5;entryDx=0;entryDy=0;" parent="1" source="AQ-8HOtOhwurITKGxNNY-10" target="AQ-8HOtOhwurITKGxNNY-12" edge="1">
          <mxGeometry width="50" height="50" relative="1" as="geometry">
            <mxPoint x="380" y="-890" as="sourcePoint" />
            <mxPoint x="430" y="-940" as="targetPoint" />
          </mxGeometry>
        </mxCell>
        <mxCell id="AQ-8HOtOhwurITKGxNNY-17" value="SELECT" style="endArrow=classic;html=1;rounded=0;exitX=1;exitY=0.5;exitDx=0;exitDy=0;" parent="1" source="AQ-8HOtOhwurITKGxNNY-12" target="AQ-8HOtOhwurITKGxNNY-13" edge="1">
          <mxGeometry width="50" height="50" relative="1" as="geometry">
            <mxPoint x="380" y="-890" as="sourcePoint" />
            <mxPoint x="430" y="-940" as="targetPoint" />
          </mxGeometry>
        </mxCell>
      </root>
    </mxGraphModel>
  </diagram>
</mxfile>
